<svg width="512" height="512" viewBox="0 0 512 512" fill="none" xmlns="http://www.w3.org/2000/svg">
<rect width="512" height="512" fill="black"/>
<path d="M193.955 219.626L165.207 187.727L203.795 206.569C233.027 220.842 267.545 216.515 291.296 195.601L322.62 168.027L304.749 205.738C291.192 234.334 296.547 268.707 318.324 292.873L347.036 324.745L308.485 305.93C279.252 291.658 244.734 295.985 220.983 316.899L189.632 344.508L207.53 306.761C221.088 278.166 215.732 243.793 193.955 219.626H193.955Z" fill="#005D5A"/>
<path d="M365.673 182.632L435.543 148.452L372.563 194.097C324.853 228.677 295.729 269.303 298.735 297.084L302.687 333.723L272.193 313.032C249.075 297.336 199.532 303.978 146.601 329.869L76.8027 364.005L139.712 318.403C187.422 283.823 216.546 243.197 213.54 215.416L209.568 178.747L240.081 199.469C263.199 215.165 312.743 208.523 365.673 182.631V182.632Z" fill="#FA0014"/>
<path d="M257.625 236.593L266.446 227.928L267.634 240.236C268.535 249.56 281.109 261.168 299.508 269.662L323.769 280.865L297.983 273.852C278.428 268.533 261.335 269.343 254.651 275.907L245.834 284.56L244.642 272.264C243.741 262.94 231.167 251.331 212.768 242.837L188.48 231.624L214.293 238.647C233.848 243.966 250.941 243.156 257.625 236.593Z" fill="#1B17B0"/>
</svg>
